<svg xmlns="http://www.w3.org/2000/svg" xmlns:xlink="http://www.w3.org/1999/xlink" width="500" zoomAndPan="magnify" viewBox="0 0 375 374.999991" height="500" preserveAspectRatio="xMidYMid meet" version="1.0"><defs><g/><clipPath id="c201c355bb"><path d="M 56.488281 151.464844 L 316.496094 151.464844 L 316.496094 223.535156 L 56.488281 223.535156 Z M 56.488281 151.464844 " clip-rule="nonzero"/></clipPath><clipPath id="a00d7170c8"><path d="M 56.488281 151.464844 L 316.738281 151.464844 L 316.738281 223.464844 L 56.488281 223.464844 Z M 56.488281 151.464844 " clip-rule="nonzero"/></clipPath><clipPath id="aaace6cc29"><path d="M 63.558594 158.238281 L 232 158.238281 L 232 216.761719 L 63.558594 216.761719 Z M 63.558594 158.238281 " clip-rule="nonzero"/></clipPath></defs><g clip-path="url(#c201c355bb)"><path fill="#000000" d="M 56.488281 151.464844 L 316.644531 151.464844 L 316.644531 223.535156 L 56.488281 223.535156 Z M 56.488281 151.464844 " fill-opacity="1" fill-rule="nonzero"/></g><g clip-path="url(#a00d7170c8)"><path stroke-linecap="butt" transform="matrix(0.75071, 0, 0, 0.749268, 56.489269, 151.464643)" fill="none" stroke-linejoin="miter" d="M -0.00131548 0.000268123 L 346.670584 0.000268123 L 346.670584 96.094022 L -0.00131548 96.094022 L -0.00131548 0.000268123 " stroke="#ffffff" stroke-width="6" stroke-opacity="1" stroke-miterlimit="4"/></g><g clip-path="url(#aaace6cc29)"><path fill="#ffffff" d="M 63.558594 158.238281 L 231.601562 158.238281 L 231.601562 217.363281 L 63.558594 217.363281 Z M 63.558594 158.238281 " fill-opacity="1" fill-rule="nonzero"/></g><g fill="#000000" fill-opacity="1"><g transform="translate(66.466134, 196.618259)"><g><path d="M 7.613281 0 L 10.082031 0 L 10.082031 -17.300781 L 16.710938 -17.300781 L 16.710938 -19.660156 L 0.953125 -19.660156 L 0.953125 -17.300781 L 7.613281 -17.300781 Z M 7.613281 0 "/></g></g></g><g fill="#000000" fill-opacity="1"><g transform="translate(86.290121, 196.618259)"><g><path d="M 2.863281 0 L 5.335938 0 L 5.335938 -7.050781 L 9.660156 -7.050781 L 14.464844 0 L 17.441406 0 L 12.5 -7.304688 C 15.363281 -8.003906 17.132812 -10.167969 17.132812 -13.339844 C 17.132812 -17.246094 14.4375 -19.660156 10.363281 -19.660156 L 2.863281 -19.660156 Z M 5.335938 -9.410156 L 5.335938 -17.300781 L 10.082031 -17.300781 C 12.949219 -17.300781 14.605469 -15.839844 14.605469 -13.339844 C 14.605469 -10.839844 12.949219 -9.410156 10.082031 -9.410156 Z M 5.335938 -9.410156 "/></g></g></g><g fill="#000000" fill-opacity="1"><g transform="translate(107.546095, 196.618259)"><g><path d="M 2.863281 0 L 15.109375 0 L 15.109375 -2.304688 L 5.335938 -2.304688 L 5.335938 -8.875 L 14.101562 -8.875 L 14.101562 -11.152344 L 5.335938 -11.152344 L 5.335938 -17.359375 L 14.800781 -17.359375 L 14.800781 -19.660156 L 2.863281 -19.660156 Z M 2.863281 0 "/></g></g></g><g fill="#000000" fill-opacity="1"><g transform="translate(126.61198, 196.618259)"><g><path d="M 0.476562 0 L 3.117188 0 L 4.914062 -4.464844 L 14.492188 -4.464844 L 16.347656 0 L 18.960938 0 L 10.871094 -19.660156 L 8.566406 -19.660156 Z M 5.871094 -6.769531 L 9.71875 -16.207031 L 13.566406 -6.769531 Z M 5.871094 -6.769531 "/></g></g></g><g fill="#000000" fill-opacity="1"><g transform="translate(148.176807, 196.618259)"><g><path d="M 9.410156 0.363281 C 13.707031 0.363281 16.488281 -1.742188 16.488281 -5.167969 C 16.488281 -8.0625 14.550781 -9.800781 9.523438 -11.039062 C 5.703125 -11.964844 4.4375 -12.976562 4.4375 -14.605469 C 4.4375 -16.488281 6.125 -17.667969 8.933594 -17.667969 C 11.824219 -17.667969 13.621094 -16.207031 13.679688 -13.847656 L 16.121094 -13.847656 C 16.09375 -17.667969 13.339844 -20.027344 8.933594 -20.027344 C 4.632812 -20.027344 1.910156 -17.917969 1.910156 -14.605469 C 1.910156 -11.570312 4.074219 -9.886719 8.902344 -8.734375 C 12.441406 -7.894531 13.929688 -6.910156 13.929688 -5.082031 C 13.929688 -3.144531 12.191406 -1.996094 9.410156 -1.996094 C 6.347656 -1.996094 4.214844 -3.511719 4.15625 -6.039062 L 1.683594 -6.039062 C 1.714844 -2.191406 4.71875 0.363281 9.410156 0.363281 Z M 9.410156 0.363281 "/></g></g></g><g fill="#000000" fill-opacity="1"><g transform="translate(168.478121, 196.618259)"><g><path d="M 10.222656 0.335938 C 14.96875 0.335938 17.835938 -2.78125 17.835938 -8.003906 L 17.835938 -19.660156 L 15.363281 -19.660156 L 15.363281 -8.171875 C 15.363281 -4.15625 13.59375 -2.078125 10.222656 -2.078125 C 6.882812 -2.078125 5.082031 -4.15625 5.082031 -8.171875 L 5.082031 -19.660156 L 2.640625 -19.660156 L 2.640625 -8.003906 C 2.640625 -2.78125 5.476562 0.335938 10.222656 0.335938 Z M 10.222656 0.335938 "/></g></g></g><g fill="#000000" fill-opacity="1"><g transform="translate(191.081849, 196.618259)"><g><path d="M 2.863281 0 L 5.335938 0 L 5.335938 -7.050781 L 9.660156 -7.050781 L 14.464844 0 L 17.441406 0 L 12.5 -7.304688 C 15.363281 -8.003906 17.132812 -10.167969 17.132812 -13.339844 C 17.132812 -17.246094 14.4375 -19.660156 10.363281 -19.660156 L 2.863281 -19.660156 Z M 5.335938 -9.410156 L 5.335938 -17.300781 L 10.082031 -17.300781 C 12.949219 -17.300781 14.605469 -15.839844 14.605469 -13.339844 C 14.605469 -10.839844 12.949219 -9.410156 10.082031 -9.410156 Z M 5.335938 -9.410156 "/></g></g></g><g fill="#000000" fill-opacity="1"><g transform="translate(212.337829, 196.618259)"><g><path d="M 2.863281 0 L 15.109375 0 L 15.109375 -2.304688 L 5.335938 -2.304688 L 5.335938 -8.875 L 14.101562 -8.875 L 14.101562 -11.152344 L 5.335938 -11.152344 L 5.335938 -17.359375 L 14.800781 -17.359375 L 14.800781 -19.660156 L 2.863281 -19.660156 Z M 2.863281 0 "/></g></g></g><g fill="#ffffff" fill-opacity="1"><g transform="translate(238.41, 196.769512)"><g><path d="M 2.078125 0 L 7.695312 0 L 7.695312 -9.972656 L 11.488281 -4.664062 L 15.167969 -4.664062 L 18.929688 -9.941406 L 18.929688 0 L 24.546875 0 L 24.546875 -19.660156 L 19.941406 -19.660156 L 13.3125 -10.308594 L 6.710938 -19.660156 L 2.078125 -19.660156 Z M 2.078125 0 "/></g></g></g><g fill="#ffffff" fill-opacity="1"><g transform="translate(265.034597, 196.769512)"><g><path d="M 0.140625 0 L 6.152344 0 L 7.21875 -2.78125 L 13.929688 -2.78125 L 15 0 L 21.035156 0 L 13.398438 -19.660156 L 7.78125 -19.660156 Z M 8.398438 -6.9375 L 10.589844 -13.03125 L 12.78125 -6.9375 Z M 8.398438 -6.9375 "/></g></g></g><g fill="#ffffff" fill-opacity="1"><g transform="translate(286.210694, 196.769512)"><g><path d="M 2.078125 0 L 7.75 0 L 7.75 -4.859375 L 10.363281 -4.859375 C 15.363281 -4.859375 18.539062 -7.75 18.539062 -12.273438 C 18.539062 -16.796875 15.363281 -19.660156 10.363281 -19.660156 L 2.078125 -19.660156 Z M 7.695312 -9.605469 L 7.695312 -14.886719 L 9.832031 -14.886719 C 11.710938 -14.886719 12.808594 -13.875 12.808594 -12.246094 C 12.808594 -10.589844 11.710938 -9.605469 9.832031 -9.605469 Z M 7.695312 -9.605469 "/></g></g></g></svg>